<svg id="Calque_1" data-name="Calque 1" xmlns="http://www.w3.org/2000/svg" viewBox="0 0 192.31 285.57"><defs><style>.cls-1{fill:#fff;}</style></defs><path class="cls-1" d="M14.69,11.9H52.81V216.73H110v29.45H14.69Z" transform="translate(-14.69 -11.43)"/><path class="cls-1" d="M89.16,11.43h52.42c30.33,0,39.86,3,51.56,12.38S207,50.25,207,60V196.45c0,9.71-2.17,26.78-13.86,36.15-14.3,11-23.83,13.05-66.29,13.05V297H89.16Zm37.69,27.44V217.54h6.07c18.19,0,25.56,0,30.76-4s5.2-15.73,5.2-15.73V59s0-10.37-3.9-14.39c-4.77-4.69-10.4-5.69-24.7-5.69Z" transform="translate(-14.69 -11.43)"/><ellipse class="cls-1" cx="38.81" cy="262.85" rx="18" ry="16.77"/></svg>