<?xml version="1.0" encoding="utf-8"?>
<!-- Generator: Adobe Illustrator 24.1.1, SVG Export Plug-In . SVG Version: 6.00 Build 0)  -->
<svg version="1.1" id="Calque_1" xmlns="http://www.w3.org/2000/svg" xmlns:xlink="http://www.w3.org/1999/xlink" x="0px" y="0px"
	 viewBox="0 0 192.3 285.6" style="enable-background:new 0 0 192.3 285.6;" xml:space="preserve">
<path d="M0,0.5h38.1v204.8h57.2v29.5H0V0.5z"/>
<path d="M74.5,0h52.4c30.3,0,39.9,3,51.6,12.4s13.9,26.4,13.9,36.2V185c0,9.7-2.2,26.8-13.9,36.2c-14.3,11-23.8,13-66.3,13v51.4
	H74.5V0z M112.2,27.4v178.7h6.1c18.2,0,25.6,0,30.8-4s5.2-15.7,5.2-15.7V47.6c0,0,0-10.4-3.9-14.4c-4.8-4.7-10.4-5.7-24.7-5.7
	L112.2,27.4z"/>
<ellipse cx="38.8" cy="262.9" rx="18" ry="16.8"/>
</svg>
